<?xml version="1.0" encoding="UTF-8" standalone="no"?>
<!-- Created with Inkscape (http://www.inkscape.org/) -->

<svg
   width="5.2318826mm"
   height="6.3026547mm"
   viewBox="0 0 5.2318826 6.3026545"
   version="1.1"
   id="svg5"
   xml:space="preserve"
   inkscape:version="1.2.2 (732a01da63, 2022-12-09)"
   sodipodi:docname="marker_white.svg"
   inkscape:export-filename="marker_white.png"
   inkscape:export-xdpi="96"
   inkscape:export-ydpi="96"
   xmlns:inkscape="http://www.inkscape.org/namespaces/inkscape"
   xmlns:sodipodi="http://sodipodi.sourceforge.net/DTD/sodipodi-0.dtd"
   xmlns="http://www.w3.org/2000/svg"
   xmlns:svg="http://www.w3.org/2000/svg"><sodipodi:namedview
     id="namedview7"
     pagecolor="#ffffff"
     bordercolor="#cccccc"
     borderopacity="1"
     inkscape:showpageshadow="false"
     inkscape:pageopacity="1"
     inkscape:pagecheckerboard="true"
     inkscape:deskcolor="#797979"
     inkscape:document-units="mm"
     showgrid="true"
     inkscape:zoom="63.537075"
     inkscape:cx="23.285617"
     inkscape:cy="11.930042"
     inkscape:window-width="3840"
     inkscape:window-height="2066"
     inkscape:window-x="2293"
     inkscape:window-y="-11"
     inkscape:window-maximized="1"
     inkscape:current-layer="layer1"><inkscape:grid
       type="xygrid"
       id="grid306"
       dotted="true"
       units="mm"
       spacingx="0.25"
       spacingy="0.25"
       empspacing="4"
       visible="true"
       originx="-136.14312"
       originy="-33.875005" /></sodipodi:namedview><defs
     id="defs2"><clipPath
       clipPathUnits="userSpaceOnUse"
       id="clipPath228"><path
         style="fill:#000000;stroke-width:0.264583"
         d="m -342.35915,157.56576 33.92132,51.25886 66.33503,-2.26142 -12.06092,-130.408622 35.42894,2.26142 61.05837,119.101522 30.15229,1.50763 -0.7538,10.5533 81.411154,-0.75383 39.9517918,15.07615 18.8451592,3.01524 -0.753797,18.84516 -68.596458,11.3071 -68.59643,-1.50759 -7.53809,15.07614 -26.38324,-4.52284 -48.99746,106.2868 -39.19797,24.87563 -9.04569,-9.79948 16.58376,-132.67008 -62.56599,-4.52284 -38.44416,50.5051 -29.39848,7.53806 13.56853,-67.08884 -0.75381,-21.8604 -9.04568,-64.82742 z"
         id="path230" /></clipPath><clipPath
       clipPathUnits="userSpaceOnUse"
       id="clipPath300"><path
         style="fill:#000000;stroke-width:0.264583"
         d="m -546.64087,-156.77182 2.26142,47.48985 100.25635,7.53807 48.24365,-5.27665 v 27.890865 l 61.05838,-0.753806 5.27664,-24.875629 79.14975,1.50761 -5.27665,17.337559 33.92132,3.76904 -0.75381,-12.060915 0.75381,-12.060914 24.87563,-6.03046 15.82995,-7.53807 25.62944,-13.56852 -47.48984,-4.52285 -55.02792,-30.90609 -54.27411,-12.81472 -50.50508,3.76904 -42.967,3.76903 -34.67513,0.75381 -58.04315,-58.04315 -35.42893,12.81472 z"
         id="path302" /></clipPath><clipPath
       clipPathUnits="userSpaceOnUse"
       id="clipPath228-8"><path
         style="fill:#000000;stroke-width:0.264583"
         d="m -342.35915,157.56576 33.92132,51.25886 66.33503,-2.26142 -12.06092,-130.408622 35.42894,2.26142 61.05837,119.101522 30.15229,1.50763 -0.7538,10.5533 81.411154,-0.75383 39.9517918,15.07615 18.8451592,3.01524 -0.753797,18.84516 -68.596458,11.3071 -68.59643,-1.50759 -7.53809,15.07614 -26.38324,-4.52284 -48.99746,106.2868 -39.19797,24.87563 -9.04569,-9.79948 16.58376,-132.67008 -62.56599,-4.52284 -38.44416,50.5051 -29.39848,7.53806 13.56853,-67.08884 -0.75381,-21.8604 -9.04568,-64.82742 z"
         id="path230-3" /></clipPath><clipPath
       clipPathUnits="userSpaceOnUse"
       id="clipPath300-3"><path
         style="fill:#000000;stroke-width:0.264583"
         d="m -546.64087,-156.77182 2.26142,47.48985 100.25635,7.53807 48.24365,-5.27665 v 27.890865 l 61.05838,-0.753806 5.27664,-24.875629 79.14975,1.50761 -5.27665,17.337559 33.92132,3.76904 -0.75381,-12.060915 0.75381,-12.060914 24.87563,-6.03046 15.82995,-7.53807 25.62944,-13.56852 -47.48984,-4.52285 -55.02792,-30.90609 -54.27411,-12.81472 -50.50508,3.76904 -42.967,3.76903 -34.67513,0.75381 -58.04315,-58.04315 -35.42893,12.81472 z"
         id="path302-2" /></clipPath></defs><g
     inkscape:label="Layer 1"
     inkscape:groupmode="layer"
     id="layer1"
     transform="translate(265.01298,165.86381)"><path
       style="opacity:1;fill:#ffffff;stroke:#000000;stroke-width:0.25"
       d="m -262.6561,-159.73881 -1.75756,-2.03449 c -0.30068,-0.44139 -0.47362,-0.94068 -0.47432,-1.48042 -0.002,-1.37008 1.10699,-2.48243 2.47707,-2.48509 1.50481,0 2.50481,1.25 2.50481,2.5 0,0.5735 -0.16904,1.02153 -0.5,1.5 z"
       id="path1005"
       sodipodi:nodetypes="ccccscc" /></g></svg>
